[IMG]http://img340.imageshack.us/img340/1050/hddesirockers.png[/IMG]
[IMG]http://img62.imageshack.us/img62/5382/roadsignphp.png[/IMG]

[IMG]http://img52.imageshack.us/img52/2936/10p0nid.jpg[/IMG]

[IMG]http://img836.imageshack.us/img836/3343/25ic0hd1.png[/IMG]

[IMG]http://img230.imageshack.us/img230/6594/imgamericanbeauty3.jpg[/IMG]

[b]Lester and Carolyn Burnham are on the outside, a perfect husband and wife, in a perfect house, in a perfect neighborhood. But inside, Lester is slipping deeper and deeper into a hopeless depression. He finally snaps when he becomes infatuated with one of his daughter's friends. Meanwhile, his daughter Jane is developing a happy friendship with a shy boy-next-door named Ricky, who lives with a homophobic father.[/b]

[IMG]http://img714.imageshack.us/img714/4783/9k1gty1.png[/IMG]
[b]Kevin Spacey   	 ...  	Lester Burnham 
   Annette Bening   	 ...  	Carolyn Burnham
   Thora Birch   	 ...  	Jane Burnham
   Wes Bentley  	 ... 	Ricky Fitts
   Mena Suvari 	         ... 	Angela Hayes
   Chris Cooper 	 ... 	Col. Frank Fitts, USMC
   Peter Gallagher 	 ... 	Buddy Kane
   Allison Janney 	 ... 	Barbara Fitts
   Scott Bakula 	 ... 	Jim Olmeyer
   Sam Robards 	         ... 	Jim Berkley
   Barry Del Sherman 	 ... 	Brad Dupree  [/b]
   

[b]General
Complete name                    : American Beauty 1999 720p BRRip Hindi~3385VKSH
Format                           : Matroska
File size                        : 2.21 GiB
Duration                         : 1h 56mn
Overall bit rate                 : 2 713 Kbps
Encoded date                     : UTC 2010-09-21 17:26:19
Writing application              : mkvmerge v4.2.0 ('No Talking') built on Jul 28 2010 18:38:23
Writing library                  : libebml v1.0.0 + libmatroska v1.0.0[/b]

[IMG]http://img412.imageshack.us/img412/7057/imdb3.png[/IMG]
[size=3][url]http://www.imdb.com/title/tt0169547/[/url][/size]

[IMG]http://img37.imageshack.us/img37/7218/vlcfile.png[/IMG]
[b]Video
ID                               : 1
Format                           : AVC
Format/Info                      : Advanced Video Codec
Format profile                   : High@L4.1
Format settings, CABAC           : Yes
Format settings, ReFrames        : 4 frames
Muxing mode                      : Container profile=Unknown@4.1
Codec ID                         : V_MPEG4/ISO/AVC
Duration                         : 1h 56mn
Bit rate                         : 2 541 Kbps
Width                            : 1 280 pixels
Height                           : 544 pixels
Display aspect ratio             : 2.35:1
Frame rate                       : 25.000 fps
Original frame rate              : 23.976 fps
Color space                      : YUV
Chroma subsampling               : 4:2:0
Bit depth                        : 8 bits
Scan type                        : Progressive
Bits/(Pixel*Frame)               : 0.146
Stream size                      : 2.11 GiB (96%)
Writing library                  : x264 core 104 r1677 19df41a[/b]

[IMG]http://img248.imageshack.us/img248/6613/musicfile1.png[/IMG]
[b]Audio
ID                               : 2
Format                           : MPEG Audio
Format version                   : Version 1
Format profile                   : Layer 3
Mode                             : Joint stereo
Mode extension                   : MS Stereo
Codec ID                         : A_MPEG/L3
Codec ID/Hint                    : MP3
Duration                         : 1h 56mn
Bit rate mode                    : Constant
Bit rate                         : 64.0 Kbps
Channel(s)                       : 2 channels
Sampling rate                    : 44.1 KHz
Video delay                      : 2s 0ms
Stream size                      : 53.3 MiB (2%)
Language                         : Hindi
[/b]


[IMG]http://img816.imageshack.us/img816/8273/americanbeauty1999720pb.jpg[/IMG]

[IMG]http://img804.imageshack.us/img804/8273/americanbeauty1999720pb.jpg[/IMG]

[IMG]http://img192.imageshack.us/img192/8273/americanbeauty1999720pb.jpg[/IMG]

[IMG]http://img692.imageshack.us/img692/8273/americanbeauty1999720pb.jpg[/IMG]

[IMG]http://img87.imageshack.us/img87/8273/americanbeauty1999720pb.jpg[/IMG]

[IMG]http://img812.imageshack.us/img812/8273/americanbeauty1999720pb.jpg[/IMG]

[SIZE=5][b]Sample Included in the Torrent[/b][/SIZE]


[IMG]http://img690.imageshack.us/img690/2538/2s9d1cg.gif[/IMG]

[IMG]http://img205.imageshack.us/img205/91/15880378.png[/IMG]
[img]http://img695.imageshack.us/img695/7097/6sdez7.gif[/img]